<?xml version="1.0" encoding="utf-8"?>
<!-- Generator: Adobe Illustrator 16.0.0, SVG Export Plug-In . SVG Version: 6.00 Build 0)  -->
<!DOCTYPE svg PUBLIC "-//W3C//DTD SVG 1.1//EN" "http://www.w3.org/Graphics/SVG/1.1/DTD/svg11.dtd">
<svg version="1.1" id="Layer_1" xmlns="http://www.w3.org/2000/svg" xmlns:xlink="http://www.w3.org/1999/xlink" x="0px" y="0px"
	 width="409.809px" height="115.554px" viewBox="0 0 409.809 115.554" enable-background="new 0 0 409.809 115.554"
	 xml:space="preserve">
<g>
	<path fill="#1A67A8" d="M114.852,23.152l-11.885,33.531H30.97l-1.942,5.879c-0.534,1.461-0.8,2.689-0.8,3.689
		c0,2.383,1.523,3.574,4.571,3.574h65.597l-7.542,21.484h-70.74C6.703,91.311,0,87.121,0,78.738c0-2.359,0.839-5.979,2.514-10.855
		L23.427,7.314c1.675-4.724,5.751-7.086,12.228-7.086h67.083c9.6,0,14.399,3.955,14.399,11.861
		C117.138,15.057,116.375,18.744,114.852,23.152z M88.225,27.605c0.152-0.453,0.229-0.944,0.229-1.473c0-2.947-1.868-4.42-5.6-4.42
		H50.855c-2.743,0-4.686,0.189-5.829,0.566c-1.6,0.605-2.667,1.739-3.2,3.4l-3.085,9.519H85.71L88.225,27.605z"/>
	<path fill="#1A67A8" d="M193.889,35.055c0.532-0.76-1.943,6.325-7.428,21.257h-45.827l-12.412,34.999h-24.914L135.537,0h70.625
		l-7.428,21.484h-45.941l-4.73,13.57H193.889z"/>
	<path fill="#1A67A8" d="M310.385,18.398l-25.713,72.912H207.99c-4.191,0-7.314-1.373-9.371-4.123
		c-1.675-2.365-2.515-5.342-2.515-8.93c0-2.443,0.382-4.695,1.143-6.758l9.013-26.447c2.361-6.87,7.2-10.306,14.514-10.306h58.74
		l1.715-5.316c0.229-0.68,1.158-3.155,1.158-3.759c0-2.639-1.715-3.959-5.143-3.959h-62.74l7.543-21.484h77.252
		c8.076,0,12.115,4.039,12.115,12.113C311.415,14.477,311.071,16.496,310.385,18.398z M272.788,54.397h-39.313
		c-3.582,0-5.943,1.625-7.086,4.872l-1.486,3.943c-0.305,1.008-0.457,1.934-0.457,2.783c0,2.555,1.295,3.83,3.887,3.83h39.084
		L272.788,54.397z"/>
	<path fill="#1A67A8" d="M377.581,91.311h-64.91c-4.572,0-8.326-1.086-11.258-3.258s-4.398-5.273-4.398-9.314
		c0-2.131,0.418-4.416,1.256-6.855l21.484-61.483c2.361-6.78,6.703-10.171,13.029-10.171h77.025l-7.543,21.484h-53.94
		c-5.027,0-8.113,1.715-9.256,5.143c0.229-0.838-4.305,12-13.6,38.514c-0.076,0.305-0.115,0.609-0.115,0.914
		c0,2.361,1.904,3.543,5.715,3.543h54.17L377.581,91.311z"/>
</g>
<g>
	<path fill="#00ACEC" d="M171.212,75.142c-24.583-8.798-48.786-22.015-69.738-26.351c-40.789-8.428-65.006,0.703-99.298,22.387
		c0,0,33.607-35.262,102.094-29.405c19.146,1.636,41.951,9.514,66.332,18.749c121.109,45.864,138.082-35.866,138.082-35.866
		S292.204,118.444,171.212,75.142z"/>
	<path fill="#00ACEC" d="M200.932,67.822C298.059,85.2,308.563,20.819,308.563,20.819C289.53,78.944,200.932,67.822,200.932,67.822z
		"/>
	<path fill="#00ACEC" d="M3.328,72.25c0,0,43.971-38.117,123.077-9.834C126.404,62.416,62.725,26.68,3.328,72.25z"/>
	<path fill="#00ACEC" d="M27.145,53.301c0,0,29.447-20.424,88.232-14.184C115.377,39.117,60.64,27.379,27.145,53.301z"/>
</g>
<g>
	<path fill="#1A67A8" d="M8.026,115.554l1.337-10.14h6.026l-0.222,1.787h-3.921l-0.297,2.278h3.906l-0.229,1.746h-3.899
		l-0.568,4.329H8.026z"/>
	<path fill="#1A67A8" d="M24.314,115.824c-1.52,0-2.735-0.443-3.65-1.331c-0.915-0.886-1.372-2.066-1.372-3.538
		c0-0.721,0.129-1.422,0.388-2.105s0.625-1.296,1.102-1.836c0.536-0.596,1.171-1.052,1.908-1.368
		c0.736-0.315,1.535-0.475,2.393-0.475c1.52,0,2.736,0.438,3.651,1.313c0.913,0.875,1.371,2.035,1.371,3.48
		c0,0.753-0.117,1.46-0.35,2.123c-0.233,0.663-0.572,1.25-1.016,1.762c-0.558,0.646-1.214,1.138-1.966,1.472
		C26.02,115.656,25.202,115.824,24.314,115.824z M24.966,107.014c-1.007,0-1.843,0.368-2.508,1.105
		c-0.665,0.736-0.998,1.663-0.998,2.781c0,0.941,0.27,1.691,0.807,2.247c0.539,0.556,1.257,0.835,2.157,0.835
		c1.002,0,1.837-0.374,2.504-1.122c0.667-0.749,1.001-1.677,1.001-2.785c0-0.937-0.268-1.682-0.804-2.234
		C26.591,107.29,25.871,107.014,24.966,107.014z"/>
	<path fill="#1A67A8" d="M36.446,115.554h-2.134l1.337-10.14h2.113c0.882,0,1.518,0.046,1.909,0.138
		c0.389,0.093,0.732,0.25,1.027,0.472c0.328,0.239,0.577,0.534,0.748,0.882c0.17,0.349,0.257,0.736,0.257,1.161
		c0,0.775-0.218,1.417-0.656,1.921c-0.436,0.505-1.062,0.849-1.88,1.029l2.299,4.537h-2.327l-2.085-4.654L36.446,115.554z
		 M37.194,109.797h0.312c0.802,0,1.35-0.109,1.638-0.329c0.288-0.219,0.433-0.597,0.433-1.132c0-0.458-0.12-0.778-0.364-0.963
		c-0.242-0.185-0.716-0.277-1.422-0.277h-0.242L37.194,109.797z"/>
	<path fill="#1A67A8" d="M45.053,115.554l2.867-10.14h2.245l0.962,4.634c0.069,0.355,0.13,0.759,0.183,1.211
		c0.053,0.454,0.096,0.942,0.128,1.469c0.112-0.411,0.236-0.809,0.375-1.195c0.138-0.384,0.292-0.761,0.463-1.126l2.279-4.993h2.328
		l0.131,10.14h-2.002l0.055-4.737c0.01-0.532,0.029-1.067,0.06-1.608c0.029-0.54,0.072-1.087,0.128-1.64
		c-0.186,0.53-0.369,1.027-0.551,1.491c-0.183,0.464-0.363,0.889-0.543,1.272l-2.48,5.222h-1.15l-1.233-5.701
		c-0.06-0.291-0.115-0.641-0.166-1.053c-0.051-0.411-0.095-0.864-0.132-1.358c-0.105,0.62-0.193,1.112-0.263,1.476
		c-0.07,0.365-0.125,0.624-0.167,0.776l-1.419,5.859H45.053z"/>
	<path fill="#1A67A8" d="M60.71,115.554l5.25-10.14h2.313l2.438,10.14h-2.25l-0.429-2.183h-3.858l-1.095,2.183H60.71z
		 M67.637,111.708l-0.485-2.396c-0.046-0.245-0.088-0.541-0.125-0.89c-0.036-0.349-0.071-0.766-0.104-1.25
		c-0.102,0.368-0.21,0.713-0.326,1.029c-0.115,0.316-0.237,0.61-0.367,0.883l-1.233,2.624H67.637z"/>
	<path fill="#1A67A8" d="M83.052,115.187c-0.425,0.212-0.884,0.372-1.375,0.479c-0.492,0.106-1.017,0.159-1.576,0.159
		c-1.487,0-2.685-0.443-3.591-1.331c-0.908-0.886-1.361-2.05-1.361-3.49c0-0.753,0.127-1.47,0.382-2.153
		c0.253-0.684,0.618-1.296,1.094-1.836c0.532-0.6,1.166-1.058,1.902-1.372c0.736-0.313,1.541-0.471,2.414-0.471
		c0.619,0,1.197,0.077,1.734,0.229c0.539,0.152,1.048,0.383,1.527,0.692l-0.297,1.989c-0.514-0.37-1.013-0.642-1.497-0.818
		c-0.485-0.175-0.974-0.263-1.468-0.263c-1.067,0-1.939,0.365-2.618,1.094c-0.679,0.73-1.018,1.665-1.018,2.806
		c0,0.937,0.267,1.682,0.803,2.237c0.536,0.554,1.255,0.831,2.161,0.831c0.585,0,1.129-0.079,1.631-0.239
		c0.5-0.16,0.966-0.403,1.396-0.73L83.052,115.187z M77.843,118.532l0.325-0.851c0.328,0.119,0.628,0.206,0.897,0.258
		c0.27,0.054,0.526,0.08,0.766,0.08c0.203,0,0.364-0.051,0.485-0.153c0.12-0.101,0.18-0.24,0.18-0.416
		c0-0.18-0.088-0.305-0.267-0.375c-0.178-0.069-0.541-0.107-1.09-0.117l0.478-1.406h0.713l-0.229,0.623h0.056
		c0.503,0,0.888,0.102,1.156,0.306c0.269,0.203,0.402,0.494,0.402,0.873c0,0.494-0.162,0.876-0.484,1.149
		c-0.324,0.272-0.776,0.409-1.358,0.409c-0.254,0-0.554-0.032-0.897-0.097C78.631,118.751,78.254,118.657,77.843,118.532z"/>
	<path fill="#1A67A8" d="M87.149,115.554l5.25-10.14h2.313l2.438,10.14H94.9l-0.43-2.183h-3.858l-1.094,2.183H87.149z
		 M94.076,111.708l-0.485-2.396c-0.046-0.245-0.088-0.541-0.125-0.89c-0.037-0.349-0.071-0.766-0.103-1.25
		c-0.102,0.368-0.211,0.713-0.326,1.029c-0.116,0.316-0.238,0.61-0.367,0.883l-1.233,2.624H94.076z M96.216,102.047
		c-0.134,0.563-0.33,0.981-0.586,1.253c-0.256,0.273-0.581,0.409-0.973,0.409c-0.106-0.005-0.21-0.016-0.313-0.032
		c-0.101-0.016-0.196-0.04-0.284-0.072l-0.422-0.125c-0.097-0.028-0.179-0.046-0.246-0.055c-0.067-0.01-0.133-0.015-0.198-0.015
		c-0.166,0-0.306,0.053-0.419,0.157c-0.113,0.103-0.195,0.254-0.245,0.453h-0.798c0.134-0.567,0.331-0.991,0.589-1.271
		c0.258-0.28,0.584-0.418,0.977-0.418c0.083,0,0.177,0.009,0.281,0.027c0.103,0.019,0.223,0.046,0.357,0.084l0.429,0.131
		c0.074,0.024,0.143,0.041,0.208,0.052c0.064,0.012,0.114,0.018,0.153,0.018c0.174,0,0.317-0.046,0.425-0.139
		c0.109-0.093,0.2-0.245,0.274-0.457H96.216z"/>
	<path fill="#1A67A8" d="M106.596,115.824c-1.52,0-2.736-0.443-3.65-1.331c-0.914-0.886-1.372-2.066-1.372-3.538
		c0-0.721,0.13-1.422,0.388-2.105c0.259-0.684,0.626-1.296,1.103-1.836c0.534-0.596,1.17-1.052,1.907-1.368
		c0.735-0.315,1.535-0.475,2.394-0.475c1.519,0,2.735,0.438,3.65,1.313c0.915,0.875,1.371,2.035,1.371,3.48
		c0,0.753-0.117,1.46-0.35,2.123s-0.571,1.25-1.014,1.762c-0.559,0.646-1.215,1.138-1.968,1.472
		C108.302,115.656,107.482,115.824,106.596,115.824z M107.246,107.014c-1.006,0-1.842,0.368-2.507,1.105
		c-0.665,0.736-0.997,1.663-0.997,2.781c0,0.941,0.269,1.691,0.807,2.247c0.538,0.556,1.257,0.835,2.157,0.835
		c1.002,0,1.837-0.374,2.505-1.122c0.667-0.749,1-1.677,1-2.785c0-0.937-0.268-1.682-0.804-2.234
		C108.872,107.29,108.152,107.014,107.246,107.014z"/>
	<path fill="#1A67A8" d="M126.06,115.554h-2.134l1.337-10.14h1.96c0.956,0,1.632,0.052,2.03,0.152
		c0.397,0.102,0.744,0.273,1.046,0.513c0.332,0.259,0.586,0.581,0.758,0.966c0.173,0.386,0.26,0.816,0.26,1.292
		c0,0.559-0.1,1.063-0.301,1.509c-0.2,0.448-0.498,0.823-0.89,1.123c-0.324,0.254-0.706,0.437-1.147,0.547
		c-0.44,0.11-1.083,0.166-1.929,0.166h-0.484L126.06,115.554z M126.793,109.95h0.325c0.804,0,1.35-0.115,1.639-0.347
		c0.288-0.231,0.433-0.625,0.433-1.184c0-0.471-0.121-0.801-0.361-0.991c-0.24-0.188-0.715-0.284-1.427-0.284h-0.242L126.793,109.95
		z"/>
	<path fill="#1A67A8" d="M137.25,115.554h-2.133l1.336-10.14h2.112c0.883,0,1.519,0.046,1.909,0.138
		c0.39,0.093,0.733,0.25,1.028,0.472c0.328,0.239,0.577,0.534,0.748,0.882c0.17,0.349,0.257,0.736,0.257,1.161
		c0,0.775-0.218,1.417-0.655,1.921c-0.436,0.505-1.063,0.849-1.88,1.029l2.3,4.537h-2.327l-2.085-4.654L137.25,115.554z
		 M137.998,109.797h0.312c0.803,0,1.35-0.109,1.637-0.329c0.289-0.219,0.434-0.597,0.434-1.132c0-0.458-0.122-0.778-0.364-0.963
		c-0.242-0.185-0.717-0.277-1.423-0.277h-0.243L137.998,109.797z"/>
	<path fill="#1A67A8" d="M151.716,115.824c-1.52,0-2.735-0.443-3.65-1.331c-0.915-0.886-1.372-2.066-1.372-3.538
		c0-0.721,0.129-1.422,0.388-2.105c0.258-0.684,0.625-1.296,1.1-1.836c0.537-0.596,1.173-1.052,1.909-1.368
		c0.736-0.315,1.534-0.475,2.393-0.475c1.519,0,2.736,0.438,3.651,1.313c0.913,0.875,1.37,2.035,1.37,3.48
		c0,0.753-0.117,1.46-0.35,2.123c-0.233,0.663-0.572,1.25-1.015,1.762c-0.558,0.646-1.214,1.138-1.967,1.472
		C153.422,115.656,152.603,115.824,151.716,115.824z M152.367,107.014c-1.007,0-1.842,0.368-2.507,1.105
		c-0.665,0.736-0.998,1.663-0.998,2.781c0,0.941,0.27,1.691,0.807,2.247s1.257,0.835,2.157,0.835c1.002,0,1.837-0.374,2.505-1.122
		c0.667-0.749,1-1.677,1-2.785c0-0.937-0.268-1.682-0.804-2.234C153.992,107.29,153.272,107.014,152.367,107.014z"/>
	<path fill="#1A67A8" d="M161.714,115.554l1.337-10.14h6.026l-0.222,1.787h-3.92l-0.298,2.278h3.906l-0.229,1.746h-3.899
		l-0.568,4.329H161.714z"/>
	<path fill="#1A67A8" d="M172.829,115.554l1.329-10.14h2.127l-1.33,10.14H172.829z"/>
	<path fill="#1A67A8" d="M180.942,112.832c0.24,0.416,0.518,0.722,0.832,0.922c0.314,0.198,0.683,0.297,1.109,0.297
		c0.452,0,0.807-0.122,1.063-0.367c0.257-0.246,0.384-0.583,0.384-1.013c0-0.276-0.074-0.523-0.221-0.74
		c-0.148-0.216-0.371-0.408-0.672-0.575c-0.074-0.042-0.182-0.101-0.326-0.18c-0.832-0.452-1.39-0.838-1.676-1.156
		c-0.208-0.235-0.367-0.505-0.475-0.807c-0.108-0.303-0.162-0.629-0.162-0.98c0-0.873,0.313-1.601,0.942-2.186
		c0.627-0.583,1.419-0.876,2.376-0.876c0.576,0,1.09,0.107,1.537,0.322c0.448,0.215,0.829,0.537,1.143,0.966l-1.086,1.406
		c-0.181-0.337-0.402-0.589-0.666-0.755c-0.263-0.167-0.567-0.25-0.914-0.25c-0.392,0-0.717,0.113-0.973,0.34
		c-0.256,0.226-0.384,0.515-0.384,0.866c0,0.456,0.42,0.922,1.26,1.399c0.162,0.091,0.284,0.164,0.367,0.215
		c0.762,0.447,1.279,0.885,1.552,1.315c0.273,0.43,0.408,0.984,0.408,1.663c0,0.947-0.319,1.71-0.959,2.293
		c-0.639,0.581-1.488,0.873-2.545,0.873c-0.642,0-1.214-0.128-1.717-0.381c-0.504-0.254-0.952-0.642-1.344-1.164L180.942,112.832z"
		/>
	<path fill="#1A67A8" d="M191.33,112.832c0.239,0.416,0.516,0.722,0.831,0.922c0.314,0.198,0.683,0.297,1.108,0.297
		c0.453,0,0.807-0.122,1.064-0.367c0.255-0.246,0.384-0.583,0.384-1.013c0-0.276-0.074-0.523-0.221-0.74
		c-0.148-0.216-0.372-0.408-0.672-0.575c-0.075-0.042-0.183-0.101-0.326-0.18c-0.831-0.452-1.39-0.838-1.676-1.156
		c-0.208-0.235-0.366-0.505-0.475-0.807c-0.109-0.303-0.163-0.629-0.163-0.98c0-0.873,0.314-1.601,0.942-2.186
		c0.627-0.583,1.419-0.876,2.375-0.876c0.578,0,1.091,0.107,1.539,0.322c0.447,0.215,0.828,0.537,1.142,0.966l-1.087,1.406
		c-0.181-0.337-0.401-0.589-0.665-0.755c-0.264-0.167-0.568-0.25-0.915-0.25c-0.392,0-0.717,0.113-0.973,0.34
		c-0.257,0.226-0.384,0.515-0.384,0.866c0,0.456,0.42,0.922,1.26,1.399c0.162,0.091,0.284,0.164,0.367,0.215
		c0.762,0.447,1.279,0.885,1.552,1.315c0.272,0.43,0.409,0.984,0.409,1.663c0,0.947-0.32,1.71-0.96,2.293
		c-0.639,0.581-1.488,0.873-2.545,0.873c-0.642,0-1.215-0.128-1.717-0.381c-0.505-0.254-0.953-0.642-1.345-1.164L191.33,112.832z"/>
	<path fill="#1A67A8" d="M201.12,115.554l1.331-10.14h2.126l-1.33,10.14H201.12z"/>
	<path fill="#1A67A8" d="M213.813,115.824c-1.519,0-2.734-0.443-3.649-1.331c-0.915-0.886-1.372-2.066-1.372-3.538
		c0-0.721,0.128-1.422,0.387-2.105c0.258-0.684,0.625-1.296,1.102-1.836c0.536-0.596,1.171-1.052,1.908-1.368
		c0.737-0.315,1.534-0.475,2.394-0.475c1.518,0,2.736,0.438,3.649,1.313c0.915,0.875,1.373,2.035,1.373,3.48
		c0,0.753-0.116,1.46-0.351,2.123c-0.232,0.663-0.571,1.25-1.017,1.762c-0.558,0.646-1.214,1.138-1.966,1.472
		C215.52,115.656,214.7,115.824,213.813,115.824z M214.465,107.014c-1.008,0-1.843,0.368-2.508,1.105
		c-0.666,0.736-0.997,1.663-0.997,2.781c0,0.941,0.268,1.691,0.806,2.247c0.539,0.556,1.258,0.835,2.158,0.835
		c1.001,0,1.836-0.374,2.504-1.122c0.668-0.749,0.999-1.677,0.999-2.785c0-0.937-0.267-1.682-0.802-2.234
		C216.09,107.29,215.369,107.014,214.465,107.014z"/>
	<path fill="#1A67A8" d="M223.813,115.554l1.336-10.14h2.211l3.136,5.229c0.338,0.573,0.578,1.005,0.72,1.296
		c0.145,0.29,0.26,0.565,0.348,0.823c0.018-0.479,0.042-0.903,0.068-1.27c0.031-0.367,0.057-0.657,0.083-0.869l0.701-5.208h1.995
		l-1.343,10.14h-2.058l-3.492-5.901c-0.217-0.36-0.395-0.676-0.527-0.949c-0.135-0.272-0.244-0.534-0.34-0.782v0.325
		c0,0.346-0.009,0.682-0.026,1.004c-0.019,0.323-0.047,0.629-0.082,0.915l-0.757,5.389H223.813z"/>
	<path fill="#1A67A8" d="M237.49,115.554l5.251-10.14h2.312l2.438,10.14h-2.251l-0.43-2.183h-3.857l-1.096,2.183H237.49z
		 M244.417,111.708l-0.488-2.396c-0.044-0.245-0.086-0.541-0.122-0.89c-0.037-0.349-0.072-0.766-0.105-1.25
		c-0.101,0.368-0.209,0.713-0.324,1.029c-0.117,0.316-0.24,0.61-0.368,0.883l-1.232,2.624H244.417z"/>
	<path fill="#1A67A8" d="M251.728,115.554l1.335-10.14h2.128l-1.11,8.34h3.521l-0.236,1.8H251.728z"/>
	<path fill="#1A67A8" d="M269.099,115.554l1.337-10.14h2.127c1.201,0,2.05,0.038,2.549,0.114c0.497,0.076,0.918,0.202,1.253,0.378
		c0.71,0.373,1.257,0.928,1.635,1.663c0.378,0.733,0.569,1.608,0.569,2.624c0,0.984-0.171,1.829-0.51,2.536
		c-0.339,0.707-0.872,1.323-1.597,1.849c-0.485,0.352-1.051,0.603-1.694,0.752c-0.644,0.15-1.643,0.225-2.996,0.225h-0.81H269.099z
		 M271.453,113.739c0.029,0,0.07,0,0.125,0c0.484,0.019,0.831,0.028,1.041,0.028c0.739,0,1.318-0.064,1.745-0.191
		c0.424-0.126,0.778-0.338,1.065-0.633c0.314-0.328,0.554-0.735,0.718-1.222c0.163-0.487,0.245-1.035,0.245-1.646
		c0-0.998-0.211-1.716-0.633-2.157c-0.423-0.442-1.12-0.662-2.089-0.662h-1.364L271.453,113.739z"/>
	<path fill="#1A67A8" d="M281.549,115.554l5.25-10.14h2.314l2.437,10.14h-2.249l-0.432-2.183h-3.857l-1.093,2.183H281.549z
		 M288.474,111.708l-0.483-2.396c-0.046-0.245-0.087-0.541-0.125-0.89c-0.036-0.349-0.071-0.766-0.104-1.25
		c-0.1,0.368-0.209,0.713-0.322,1.029c-0.118,0.316-0.24,0.61-0.37,0.883l-1.231,2.624H288.474z"/>
	<path fill="#1A67A8" d="M303.119,115.554l1.337-10.14h2.099c0.883,0,1.525,0.046,1.927,0.138c0.403,0.093,0.742,0.25,1.024,0.472
		c0.284,0.226,0.503,0.492,0.646,0.796c0.146,0.304,0.219,0.645,0.219,1.018c0,0.656-0.19,1.202-0.575,1.635
		c-0.381,0.434-0.903,0.697-1.563,0.789c0.646,0.097,1.153,0.344,1.519,0.739c0.368,0.394,0.552,0.892,0.552,1.492
		c0,0.527-0.112,1.002-0.333,1.427c-0.221,0.426-0.542,0.776-0.962,1.053c-0.318,0.213-0.714,0.363-1.185,0.451
		c-0.47,0.088-1.258,0.132-2.363,0.132H303.119z M305.432,113.877h0.415c0.881,0,1.494-0.11,1.832-0.329
		c0.34-0.22,0.511-0.593,0.511-1.118c0-0.449-0.142-0.766-0.422-0.954c-0.281-0.187-0.814-0.28-1.595-0.28h-0.38L305.432,113.877z
		 M306.325,107.069l-0.322,2.459h0.227c0.789,0,1.334-0.102,1.633-0.305c0.304-0.203,0.451-0.547,0.451-1.031
		c0-0.417-0.119-0.707-0.363-0.874c-0.241-0.166-0.721-0.249-1.437-0.249H306.325z"/>
	<path fill="#1A67A8" d="M314.483,115.554l1.336-10.14h6.027l-0.225,1.787h-3.935l-0.297,2.278h3.922l-0.231,1.746h-3.925
		l-0.333,2.542h3.934l-0.24,1.787H314.483z"/>
	<path fill="#1A67A8" d="M325.7,115.554l1.337-10.14h2.126l-1.106,8.34h3.517l-0.234,1.8H325.7z"/>
	<path fill="#1A67A8" d="M335.742,115.554l1.336-10.14h6.024l-0.22,1.787h-3.934l-0.299,2.278h3.92l-0.228,1.746h-3.928
		l-0.332,2.542h3.934l-0.242,1.787H335.742z"/>
	<path fill="#1A67A8" d="M345.967,115.554v-0.242l5.805-8.228h-4.344l0.269-1.67h7.505v0.194l-5.757,8.242h4.723l-0.271,1.705
		H345.967z"/>
	<path fill="#1A67A8" d="M357.482,115.554l5.252-10.14h2.314l2.437,10.14h-2.249l-0.431-2.183h-3.859l-1.093,2.183H357.482z
		 M364.409,111.708l-0.482-2.396c-0.048-0.245-0.089-0.541-0.126-0.89c-0.037-0.349-0.072-0.766-0.104-1.25
		c-0.102,0.368-0.21,0.713-0.323,1.029c-0.116,0.316-0.239,0.61-0.369,0.883l-1.231,2.624H364.409z"/>
</g>
</svg>
